<svg xmlns="http://www.w3.org/2000/svg" xmlns:xlink="http://www.w3.org/1999/xlink" width="500" zoomAndPan="magnify" viewBox="0 0 375 374.999991" height="500" preserveAspectRatio="xMidYMid meet" version="1.0"><defs><g/><clipPath id="bc175d6f0b"><path d="M 212 97.886719 L 227 97.886719 L 227 107 L 212 107 Z M 212 97.886719 " clip-rule="nonzero"/></clipPath><clipPath id="c3771e85b5"><path d="M 191.042969 143.777344 L 247.246094 143.777344 L 247.246094 147.386719 L 191.042969 147.386719 Z M 191.042969 143.777344 " clip-rule="nonzero"/></clipPath></defs><path stroke-linecap="butt" transform="matrix(0.75, 0, 0, 0.75, 94.364523, 116.64036)" fill="none" stroke-linejoin="miter" d="M 209.691066 139.901405 C 208.165025 152.932656 203.357733 162.989948 195.258774 170.073282 C 187.165023 177.151407 176.404606 180.693074 162.972313 180.693074 C 148.420229 180.693074 136.753562 175.474324 127.982728 165.036823 C 119.206685 154.599322 114.821268 140.63578 114.821268 123.146195 L 114.821268 111.297236 C 114.821268 99.844111 116.868144 89.771193 120.956685 81.083693 C 125.045227 72.396192 130.842103 65.724317 138.347312 61.068066 C 145.85252 56.417024 154.540021 54.088899 164.415022 54.088899 C 177.503564 54.088899 187.998357 57.739941 195.89419 65.047233 C 203.795233 72.354525 208.394191 82.469109 209.691066 95.385777 L 193.357732 95.385777 C 191.946273 85.568068 188.883773 78.458692 184.17544 74.05765 C 179.461898 69.661817 172.878564 67.458692 164.415022 67.458692 C 154.034813 67.458692 145.894187 71.297234 139.998353 78.969109 C 134.10252 86.640985 131.154603 97.557652 131.154603 111.719111 L 131.154603 123.651404 C 131.154603 137.026405 133.94627 147.656614 139.534812 155.557656 C 145.118145 163.458698 152.930646 167.406615 162.972313 167.406615 C 172.003564 167.406615 178.925439 165.35974 183.753565 161.271198 C 188.576482 157.177448 191.774398 150.057655 193.357732 139.901405 Z M 209.691066 139.901405 " stroke="#000000" stroke-width="12.999225" stroke-opacity="1" stroke-miterlimit="4"/><g fill="#000000" fill-opacity="1"><g transform="translate(172.927018, 250.890351)"><g><path d="M 78.703125 -29.328125 C 77.554688 -19.546875 73.945312 -12 67.875 -6.6875 C 61.800781 -1.382812 53.734375 1.265625 43.671875 1.265625 C 32.753906 1.265625 24.003906 -2.644531 17.421875 -10.46875 C 10.835938 -18.300781 7.546875 -28.773438 7.546875 -41.890625 L 7.546875 -50.78125 C 7.546875 -59.363281 9.078125 -66.910156 12.140625 -73.421875 C 15.210938 -79.941406 19.5625 -84.945312 25.1875 -88.4375 C 30.820312 -91.9375 37.34375 -93.6875 44.75 -93.6875 C 54.5625 -93.6875 62.425781 -90.941406 68.34375 -85.453125 C 74.269531 -79.972656 77.722656 -72.390625 78.703125 -62.703125 L 66.453125 -62.703125 C 65.390625 -70.066406 63.09375 -75.398438 59.5625 -78.703125 C 56.03125 -82.003906 51.09375 -83.65625 44.75 -83.65625 C 36.957031 -83.65625 30.847656 -80.773438 26.421875 -75.015625 C 22.003906 -69.265625 19.796875 -61.078125 19.796875 -50.453125 L 19.796875 -41.515625 C 19.796875 -31.484375 21.890625 -23.503906 26.078125 -17.578125 C 30.273438 -11.648438 36.140625 -8.6875 43.671875 -8.6875 C 50.441406 -8.6875 55.632812 -10.21875 59.25 -13.28125 C 62.863281 -16.351562 65.265625 -21.703125 66.453125 -29.328125 Z M 78.703125 -29.328125 "/></g></g></g><path stroke-linecap="butt" transform="matrix(0.75, 0, 0, 0.75, 14.544981, 57.119027)" fill="none" stroke-linejoin="miter" d="M 199.21608 62.06526 L 217.367123 62.06526 L 217.367123 159.028808 C 217.367123 172.132976 213.434831 182.382976 205.565039 189.784019 C 197.695247 197.179852 187.210871 200.882978 174.106703 200.882978 C 160.502536 200.882978 149.903577 197.398602 142.315035 190.440269 C 134.731701 183.481935 130.940034 173.731934 130.940034 161.190267 L 148.997327 161.190267 C 148.997327 169.028809 151.14316 175.143393 155.434827 179.534018 C 159.731702 183.919435 165.955661 186.117352 174.106703 186.117352 C 181.565037 186.117352 187.601496 183.763185 192.210871 179.06006 C 196.820247 174.356934 199.15358 167.7736 199.21608 159.310058 Z M 199.21608 62.06526 " stroke="#000000" stroke-width="14.44635" stroke-opacity="1" stroke-miterlimit="4"/><g fill="#000000" fill-opacity="1"><g transform="translate(109.009819, 206.369017)"><g><path d="M 54.953125 -102.703125 L 68.5625 -102.703125 L 68.5625 -29.984375 C 68.5625 -20.148438 65.609375 -12.457031 59.703125 -6.90625 C 53.804688 -1.363281 45.941406 1.40625 36.109375 1.40625 C 25.910156 1.40625 17.960938 -1.203125 12.265625 -6.421875 C 6.578125 -11.640625 3.734375 -18.953125 3.734375 -28.359375 L 17.28125 -28.359375 C 17.28125 -22.472656 18.890625 -17.882812 22.109375 -14.59375 C 25.328125 -11.300781 29.992188 -9.65625 36.109375 -9.65625 C 41.703125 -9.65625 46.226562 -11.421875 49.6875 -14.953125 C 53.144531 -18.484375 54.898438 -23.421875 54.953125 -29.765625 Z M 54.953125 -102.703125 "/></g></g></g><g clip-path="url(#bc175d6f0b)"><path fill="#000000" d="M 226.070312 104.816406 L 226.070312 106.890625 C 225.894531 106.851562 225.710938 106.832031 225.523438 106.832031 L 225.347656 106.832031 L 225.347656 106.285156 C 225.347656 106.132812 225.289062 105.988281 225.1875 105.871094 L 222.914062 103.332031 C 222.800781 103.207031 222.640625 103.128906 222.46875 103.125 C 222.300781 103.121094 222.136719 103.1875 222.015625 103.308594 C 219.515625 105.808594 213.652344 105.667969 213.574219 105.667969 C 213.410156 105.664062 213.246094 105.726562 213.128906 105.84375 C 213.007812 105.957031 212.941406 106.117188 212.941406 106.285156 L 212.941406 106.832031 L 212.761719 106.832031 C 212.574219 106.832031 212.390625 106.851562 212.214844 106.890625 L 212.214844 104.875 C 212.214844 103.007812 212.953125 101.246094 214.289062 99.914062 C 215.597656 98.605469 217.324219 97.886719 219.144531 97.886719 C 219.152344 97.886719 219.160156 97.886719 219.167969 97.886719 C 222.972656 97.902344 226.070312 101.007812 226.070312 104.816406 " fill-opacity="1" fill-rule="nonzero"/></g><path fill="#000000" d="M 212.941406 108.066406 L 212.941406 110.855469 L 212.761719 110.855469 C 211.996094 110.855469 211.367188 110.230469 211.367188 109.460938 C 211.367188 108.96875 211.625 108.535156 212.011719 108.289062 C 212.230469 108.148438 212.488281 108.066406 212.761719 108.066406 L 212.941406 108.066406 " fill-opacity="1" fill-rule="nonzero"/><path fill="#000000" d="M 226.300781 108.304688 C 226.671875 108.558594 226.917969 108.980469 226.917969 109.460938 C 226.917969 110.230469 226.292969 110.855469 225.523438 110.855469 L 225.347656 110.855469 L 225.347656 108.066406 L 225.523438 108.066406 C 225.8125 108.066406 226.078125 108.15625 226.300781 108.304688 " fill-opacity="1" fill-rule="nonzero"/><path fill="#000000" d="M 224.113281 107.449219 L 224.113281 111.34375 C 224.113281 113.023438 223.273438 114.507812 221.992188 115.410156 C 221.1875 115.976562 220.203125 116.308594 219.144531 116.308594 C 218.082031 116.308594 217.101562 115.976562 216.292969 115.410156 C 215.011719 114.507812 214.175781 113.023438 214.175781 111.34375 L 214.175781 106.902344 C 215.765625 106.871094 219.925781 106.597656 222.402344 104.613281 L 224.113281 106.523438 L 224.113281 107.449219 " fill-opacity="1" fill-rule="nonzero"/><path fill="#000000" d="M 221.730469 116.980469 L 221.730469 118.558594 L 219.144531 121.761719 L 216.558594 118.558594 L 216.558594 116.980469 C 217.34375 117.34375 218.222656 117.546875 219.144531 117.546875 C 220.066406 117.546875 220.941406 117.34375 221.730469 116.980469 " fill-opacity="1" fill-rule="nonzero"/><path fill="#000000" d="M 215.714844 119.480469 L 218.039062 122.359375 L 207.511719 122.359375 C 208.03125 121.972656 208.613281 121.675781 209.242188 121.480469 L 215.714844 119.480469 " fill-opacity="1" fill-rule="nonzero"/><path fill="#000000" d="M 230.777344 122.359375 L 220.25 122.359375 L 222.570312 119.480469 L 229.042969 121.480469 C 229.671875 121.675781 230.257812 121.972656 230.777344 122.359375 " fill-opacity="1" fill-rule="nonzero"/><path fill="#000000" d="M 215.53125 130.390625 C 215.800781 130.183594 215.851562 129.792969 215.644531 129.523438 C 215.4375 129.253906 215.046875 129.203125 214.777344 129.414062 L 210.667969 132.582031 C 210.515625 132.699219 210.429688 132.878906 210.429688 133.070312 C 210.429688 133.261719 210.515625 133.445312 210.667969 133.558594 L 214.777344 136.730469 C 214.890625 136.816406 215.023438 136.859375 215.152344 136.859375 C 215.339844 136.859375 215.523438 136.777344 215.644531 136.617188 C 215.851562 136.347656 215.800781 135.960938 215.53125 135.75 L 212.058594 133.070312 Z M 221.234375 127.648438 C 221.324219 127.316406 221.128906 126.976562 220.800781 126.890625 C 220.46875 126.800781 220.132812 126.996094 220.042969 127.328125 L 217.050781 138.496094 C 216.960938 138.824219 217.15625 139.164062 217.488281 139.253906 C 217.539062 139.265625 217.59375 139.273438 217.648438 139.273438 C 217.921875 139.273438 218.167969 139.089844 218.242188 138.816406 Z M 227.859375 133.070312 C 227.859375 132.878906 227.769531 132.699219 227.617188 132.582031 L 223.507812 129.414062 C 223.238281 129.203125 222.851562 129.253906 222.644531 129.523438 C 222.433594 129.792969 222.484375 130.183594 222.753906 130.390625 L 226.230469 133.070312 L 222.753906 135.75 C 222.484375 135.960938 222.433594 136.347656 222.644531 136.617188 C 222.765625 136.777344 222.945312 136.859375 223.132812 136.859375 C 223.265625 136.859375 223.398438 136.816406 223.507812 136.730469 L 227.617188 133.558594 C 227.769531 133.445312 227.859375 133.261719 227.859375 133.070312 Z M 235.878906 123.785156 C 235.992188 123.90625 236.046875 124.0625 236.035156 124.230469 L 234.667969 142.546875 L 203.621094 142.546875 L 202.25 124.230469 C 202.238281 124.0625 202.292969 123.90625 202.40625 123.785156 C 202.519531 123.664062 202.671875 123.597656 202.839844 123.597656 L 235.449219 123.597656 C 235.613281 123.597656 235.765625 123.664062 235.878906 123.785156 " fill-opacity="1" fill-rule="nonzero"/><g clip-path="url(#c3771e85b5)"><path fill="#000000" d="M 247.246094 147.292969 L 247.246094 147.390625 L 191.042969 147.390625 L 191.042969 147.292969 C 191.042969 145.363281 192.609375 143.796875 194.539062 143.796875 L 243.75 143.796875 C 245.675781 143.796875 247.246094 145.363281 247.246094 147.292969 " fill-opacity="1" fill-rule="nonzero"/></g></svg>